<?xml version="1.0" encoding="utf-8"?>
<!-- Generator: Adobe Illustrator 25.2.3, SVG Export Plug-In . SVG Version: 6.00 Build 0)  -->
<svg version="1.1" id="_x35_-Star-Rated-On_xA0_Image_copy"
	 xmlns="http://www.w3.org/2000/svg" xmlns:xlink="http://www.w3.org/1999/xlink" x="0px" y="0px" viewBox="0 0 762.5 434.7"
	 style="enable-background:new 0 0 762.5 434.7;" xml:space="preserve">
<style type="text/css">
	.st0{fill:#1F2352;}
</style>
<g>
	<g id="XMLID_12_">
		<path id="XMLID_30_" class="st0" d="M95.3,178.5v25.7h61.3c-1.9,14.4-6.7,24.9-14,32.3c-9,9-22.9,18.8-47.4,18.8
			c-37.8,0-67.3-30.5-67.3-68.2s29.5-68.2,67.3-68.2c20.3,0,35.3,8,46.2,18.4l18.1-18.1c-15.2-14.8-35.7-26.1-64.3-26.1
			C43.5,93.1,0,135.2,0,187s43.5,93.9,95.2,93.9c28,0,49-9.2,65.5-26.3c16.9-16.9,22.2-40.8,22.2-60c0-5.9-0.4-11.5-1.4-16.1
			L95.3,178.5L95.3,178.5z"/>
		<path id="XMLID_27_" class="st0" d="M259.7,157.6c-33.5,0-60.8,25.4-60.8,60.6c0,34.8,27.3,60.6,60.8,60.6s60.8-25.7,60.8-60.6
			C320.5,183.1,293.2,157.6,259.7,157.6z M259.7,255c-18.4,0-34.2-15.1-34.2-36.7c0-21.8,15.9-36.7,34.2-36.7s34.2,14.9,34.2,36.7
			C293.9,239.8,278,255,259.7,255z"/>
		<path id="XMLID_23_" class="st0" d="M557.8,171.2h-0.9c-6-7.1-17.4-13.6-31.9-13.6c-30.2,0-56.6,26.4-56.6,60.6
			c0,34,26.4,60.6,56.6,60.6c14.5,0,26-6.5,31.9-13.8h0.9v8.5c0,23.2-12.4,35.6-32.3,35.6c-16.3,0-26.4-11.7-30.6-21.6l-23.2,9.6
			c6.7,16.1,24.3,35.8,53.7,35.8c31.2,0,57.6-18.4,57.6-63.1v-109h-25.2V171.2z M527.2,255c-18.4,0-32.3-15.6-32.3-36.7
			c0-21.4,14-36.7,32.3-36.7c18.2,0,32.3,15.6,32.3,36.9C559.7,239.6,545.4,255,527.2,255z"/>
		<path id="XMLID_19_" class="st0" d="M395.3,157.6c-33.5,0-60.8,25.4-60.8,60.6c0,34.8,27.3,60.6,60.8,60.6s60.8-25.7,60.8-60.6
			C456.1,183.1,428.8,157.6,395.3,157.6z M395.3,255c-18.4,0-34.2-15.1-34.2-36.7c0-21.8,15.9-36.7,34.2-36.7
			c18.4,0,34.2,14.9,34.2,36.7C429.5,239.8,413.6,255,395.3,255z"/>
		<path id="XMLID_17_" class="st0" d="M603.9,95.6h26.2v183.3h-26.2V95.6z"/>
		<path id="XMLID_13_" class="st0" d="M710.9,255c-13.6,0-23.2-6.1-29.4-18.4l81-33.5l-2.7-6.9c-5-13.6-20.5-38.6-51.8-38.6
			c-31.2,0-57.2,24.5-57.2,60.6c0,34,25.7,60.6,60.1,60.6c27.8,0,43.8-17,50.5-26.8l-20.7-13.8C733.9,248.3,724.5,255,710.9,255
			L710.9,255z M709.1,180.4c10.7,0,19.9,5.5,23,13.4l-54.8,22.6C677.2,190.9,695.3,180.4,709.1,180.4z"/>
	</g>
	<g>
		<path class="st0" d="M214.5,373.7l-29.1-4.5l-13.1-27.8c-1-2.1-4.4-2.1-5.4,0l-13.1,27.8l-29.1,4.5c-2.4,0.4-3.4,3.3-1.7,5
			l21.2,21.7l-5,30.7c-0.4,2.4,2.2,4.3,4.4,3.1l26-14.4l26,14.4c2.1,1.2,4.8-0.6,4.4-3.1l-5-30.7l21.2-21.7
			C217.8,377,216.9,374.1,214.5,373.7L214.5,373.7z"/>
		<path class="st0" d="M320.3,373.7l-29.1-4.5l-13.1-27.8c-1-2.1-4.4-2.1-5.4,0l-13,27.8l-29.1,4.5c-2.4,0.4-3.4,3.3-1.7,5
			l21.2,21.7l-5,30.7c-0.4,2.4,2.2,4.3,4.4,3.1l26-14.4l26,14.4c2.1,1.2,4.8-0.6,4.4-3.1l-5-30.7l21.1-21.7
			C323.7,377,322.7,374.1,320.3,373.7L320.3,373.7z"/>
		<path class="st0" d="M426.2,373.7l-29.1-4.5L384,341.5c-1-2.1-4.4-2.1-5.4,0l-13,27.8l-29.1,4.5c-2.4,0.4-3.4,3.3-1.7,5l21.2,21.7
			l-5,30.7c-0.4,2.4,2.2,4.3,4.4,3.1l26-14.4l26,14.4c2.1,1.2,4.8-0.6,4.4-3.1l-5-30.7l21.2-21.7C429.5,377,428.6,374.1,426.2,373.7
			L426.2,373.7z"/>
		<path class="st0" d="M532,373.7l-29.1-4.5l-13.1-27.8c-1-2.1-4.4-2.1-5.4,0l-13,27.8l-29.1,4.5c-2.4,0.4-3.4,3.3-1.7,5l21.2,21.7
			l-5,30.7c-0.4,2.4,2.2,4.3,4.4,3.1l26-14.4l26,14.4c2.1,1.2,4.8-0.6,4.3-3.1l-5-30.7l21.2-21.7C535.4,377,534.4,374.1,532,373.7
			L532,373.7z"/>
		<path class="st0" d="M637.9,373.7l-29.1-4.5l-13.1-27.8c-1-2.1-4.4-2.1-5.4,0l-13,27.8l-29.1,4.5c-2.4,0.4-3.3,3.3-1.7,5
			l21.2,21.7l-5,30.7c-0.4,2.4,2.2,4.3,4.3,3.1l26-14.4l26,14.4c2.1,1.2,4.8-0.6,4.3-3.1l-5-30.7l21.2-21.7
			C641.2,377,640.3,374.1,637.9,373.7L637.9,373.7z"/>
	</g>
	<g>
		<path class="st0" d="M30.9,44.8l3.9-40.5h38.5v13.2H47.5l-1.4,17.2c3-2,6.1-3,9.2-3c6.6,0,11.6,2.3,15.2,7s5.3,11.3,5.3,19.8
			c0,8-2.1,14.4-6.3,19.3c-4.2,4.9-9.9,7.3-16.9,7.3c-4.2,0-8.1-1-11.7-3c-3.6-2-6.4-4.8-8.5-8.3s-3.1-7.5-3.1-12h15.3
			c0.2,3.3,1.1,5.9,2.5,7.7c1.4,1.8,3.2,2.7,5.4,2.7c2.6,0,4.5-1.2,5.9-3.7s2.1-6.1,2.1-11c0-4.6-0.8-8.1-2.5-10.4s-4-3.5-7-3.5
			c-2.9,0-5.2,1-6.8,3l-1,1.4L30.9,44.8z"/>
		<path class="st0" d="M114.2,56.3H87.5V43.4h26.7V56.3z"/>
		<path class="st0" d="M161.4,63.1c0-3.2-0.8-5.7-2.5-7.3c-1.7-1.7-4.7-3.4-9.1-5.2c-8-3-13.7-6.6-17.2-10.6s-5.2-8.9-5.2-14.4
			c0-6.7,2.4-12.1,7.1-16.2c4.8-4.1,10.8-6.1,18.1-6.1c4.9,0,9.2,1,13.1,3.1c3.8,2.1,6.8,5,8.8,8.7s3.1,8,3.1,12.8h-16
			c0-3.7-0.8-6.5-2.4-8.5c-1.6-2-3.9-2.9-6.9-2.9c-2.8,0-5,0.8-6.6,2.5s-2.4,3.9-2.4,6.7c0,2.2,0.9,4.2,2.6,5.9s4.9,3.6,9.3,5.5
			c7.8,2.8,13.4,6.2,16.9,10.3s5.3,9.3,5.3,15.6c0,6.9-2.2,12.3-6.6,16.2c-4.4,3.9-10.4,5.8-18,5.8c-5.1,0-9.8-1.1-14.1-3.2
			c-4.3-2.1-7.5-5.1-9.9-9.1c-2.4-3.9-3.6-8.6-3.6-13.9h16.1c0,4.6,0.9,7.9,2.7,10c1.8,2.1,4.7,3.1,8.8,3.1
			C158.6,72,161.4,69,161.4,63.1z"/>
		<path class="st0" d="M205.5,10.3v14.5h7.9v11.6h-7.9v29.4c0,2.3,0.3,3.9,1,4.8c0.7,0.9,1.9,1.3,3.7,1.3c1.5,0,2.7-0.1,3.7-0.4
			l-0.1,12c-2.6,1-5.5,1.5-8.5,1.5c-10,0-15-5.7-15.1-17.2V36.4h-6.8V24.8h6.8V10.3H205.5z"/>
		<path class="st0" d="M250,84c-0.4-0.9-0.9-2.4-1.3-4.6c-2.8,3.8-6.5,5.7-11.3,5.7c-5,0-9.1-1.6-12.3-4.9
			c-3.3-3.3-4.9-7.5-4.9-12.7c0-6.2,2-11,5.9-14.4s9.6-5.1,17.1-5.2h4.7v-4.8c0-2.7-0.5-4.5-1.4-5.6s-2.2-1.6-4-1.6
			c-3.9,0-5.8,2.3-5.8,6.8h-15.5c0-5.5,2.1-10,6.1-13.5s9.4-5.5,15.7-5.5c6.5,0,11.5,1.7,15.1,5.1c3.5,3.4,5.3,8.2,5.3,14.5v27.8
			c0.1,5.1,0.8,9.1,2.2,12V84H250L250,84z M240.9,72.9c1.7,0,3.2-0.3,4.4-1c1.2-0.7,2.1-1.5,2.7-2.5V57.1h-3.7
			c-2.6,0-4.7,0.8-6.2,2.5s-2.3,3.9-2.3,6.7C235.7,70.7,237.4,72.9,240.9,72.9z"/>
		<path class="st0" d="M303.8,39.7l-5.1-0.4c-4.2,0-7.1,1.9-8.6,5.6V84h-15.5V24.8h14.6l0.4,6.4c2.4-5,5.8-7.5,10.1-7.5
			c1.8,0,3.2,0.2,4.3,0.7L303.8,39.7z"/>
		<path class="st0" d="M362.4,54.9h-8V84h-16.1V4.4H364c8,0,14.3,2.1,18.7,6.3s6.6,10.1,6.6,17.8c0,10.6-3.9,18-11.5,22.2l13.9,32.6
			v0.8h-17.3L362.4,54.9z M354.4,41.5h9.1c3.2,0,5.6-1.1,7.2-3.2c1.6-2.1,2.4-5,2.4-8.6c0-8-3.1-12-9.4-12h-9.4L354.4,41.5
			L354.4,41.5z"/>
		<path class="st0" d="M427.6,84c-0.4-0.9-0.9-2.4-1.3-4.6c-2.8,3.8-6.5,5.7-11.3,5.7c-5,0-9.1-1.6-12.3-4.9
			c-3.2-3.3-4.9-7.5-4.9-12.7c0-6.2,2-11,5.9-14.4c4-3.4,9.6-5.1,17.1-5.2h4.7v-4.8c0-2.7-0.5-4.5-1.4-5.6c-0.9-1.1-2.2-1.6-4-1.6
			c-3.9,0-5.8,2.3-5.8,6.8h-15.5c0-5.5,2-10,6.1-13.5c4.1-3.5,9.3-5.3,15.5-5.3c6.5,0,11.5,1.7,15.1,5.1c3.5,3.4,5.3,8.2,5.3,14.5
			v27.8c0.1,5.1,0.8,9.1,2.2,12v0.9L427.6,84L427.6,84z M418.5,72.9c1.7,0,3.2-0.3,4.4-1c1.2-0.7,2.1-1.5,2.7-2.5V57.1h-3.7
			c-2.6,0-4.7,0.8-6.2,2.5s-2.3,3.9-2.3,6.7C413.4,70.7,415.1,72.9,418.5,72.9z"/>
		<path class="st0" d="M470.2,10.3v14.5h7.9v11.6h-7.9v29.4c0,2.3,0.3,3.9,1,4.8c0.6,0.9,1.9,1.3,3.7,1.3c1.5,0,2.7-0.1,3.7-0.4
			l-0.1,12c-2.6,1-5.5,1.5-8.5,1.5c-10,0-15-5.7-15.1-17.2V36.4h-6.8V24.8h6.8V10.3H470.2z"/>
		<path class="st0" d="M510.5,85.1c-8,0-14.1-2.4-18.6-7.1c-4.5-4.7-6.7-11.5-6.7-20.3V53c0-9.3,2-16.5,6.1-21.6
			c4.1-5.1,9.9-7.6,17.5-7.6c7.4,0,13,2.4,16.8,7.1s5.7,11.8,5.7,21.1v7.6h-30.8c0.2,4.4,1.2,7.6,2.9,9.6s4.4,3.1,7.9,3.1
			c5.2,0,9.5-1.8,13-5.3l6.1,9.3c-1.9,2.6-4.7,4.8-8.3,6.4C518.7,84.3,514.7,85.1,510.5,85.1z M500.8,48.8h15.5v-1.4
			c-0.1-3.5-0.7-6.2-1.8-8s-3-2.7-5.7-2.7s-4.7,1-5.9,2.9C501.7,41.4,501,44.5,500.8,48.8z"/>
		<path class="st0" d="M538.1,52.6c0-9.7,1.6-16.9,4.9-21.7c3.3-4.8,8-7.2,14.3-7.2c4.6,0,8.3,2,11.4,5.9V0h15.6v84h-14l-0.7-6
			c-3.2,4.7-7.2,7.1-12.2,7.1c-6.2,0-10.9-2.4-14.2-7.1s-4.9-11.7-5-20.9L538.1,52.6L538.1,52.6z M553.6,56.5
			c0,5.8,0.6,9.9,1.9,12.2c1.2,2.3,3.3,3.5,6.3,3.5c3.1,0,5.4-1.4,6.9-4.1v-27c-1.5-2.9-3.8-4.4-6.9-4.4c-2.8,0-4.9,1.2-6.2,3.4
			c-1.3,2.3-2,6.4-2,12.2V56.5z"/>
		<path class="st0" d="M678.3,51.3c0,10.7-2.5,19-7.6,24.9c-5,5.9-12,8.9-21,8.9c-8.9,0-16-2.9-21-8.8c-5.1-5.8-7.7-14-7.8-24.6
			V38.1c0-10.9,2.5-19.5,7.6-25.6s12.1-9.2,21.1-9.2c8.9,0,15.8,3,20.9,9s7.7,14.5,7.8,25.4V51.3L678.3,51.3z M662.2,38
			c0-7.2-1-12.5-3.1-16s-5.2-5.2-9.5-5.2s-7.4,1.7-9.5,5.1c-2,3.4-3.1,8.5-3.2,15.4v14.2c0,7,1,12.1,3.1,15.4
			c2.1,3.3,5.3,4.9,9.6,4.9c4.2,0,7.3-1.6,9.3-4.8c2-3.2,3.1-8.2,3.1-15L662.2,38L662.2,38z"/>
		<path class="st0" d="M703.2,24.8l0.4,5.8c3.5-4.6,8.1-6.9,13.7-6.9c10.2,0,15.4,7.1,15.7,21.4V84h-15.5V46.2
			c0-3.3-0.5-5.8-1.5-7.3s-2.8-2.3-5.3-2.3c-2.8,0-5,1.4-6.6,4.3v43h-15.5V24.8H703.2z"/>
	</g>
</g>
</svg>
