<?xml version="1.0" encoding="utf-8"?>
<!-- Generator: Adobe Illustrator 25.2.3, SVG Export Plug-In . SVG Version: 6.00 Build 0)  -->
<svg version="1.1" id="Layer_1" xmlns="http://www.w3.org/2000/svg" xmlns:xlink="http://www.w3.org/1999/xlink" x="0px" y="0px"
	 viewBox="0 0 24 24" style="enable-background:new 0 0 24 24;" xml:space="preserve">
<style type="text/css">
	.st0{fill:#CF1C31;}
</style>
<g>
	<path class="st0" d="M12,1.7C6.3,1.7,1.7,6.3,1.7,12c0,5.7,4.6,10.3,10.3,10.3c5.7,0,10.3-4.6,10.3-10.3C22.3,6.3,17.7,1.7,12,1.7z
		 M12,21.7c-5.3,0-9.7-4.4-9.7-9.7S6.7,2.3,12,2.3s9.7,4.4,9.7,9.7S17.3,21.7,12,21.7z"/>
	<path class="st0" d="M16,11.7h-3.7V8c0-0.2-0.1-0.3-0.3-0.3S11.7,7.8,11.7,8v3.7H8c-0.2,0-0.3,0.1-0.3,0.3s0.1,0.3,0.3,0.3h3.7V16
		c0,0.2,0.1,0.3,0.3,0.3s0.3-0.1,0.3-0.3v-3.7H16c0.2,0,0.3-0.1,0.3-0.3S16.2,11.7,16,11.7z"/>
</g>
</svg>
