<?xml version="1.0" encoding="utf-8"?>
<!-- Generator: Adobe Illustrator 25.2.3, SVG Export Plug-In . SVG Version: 6.00 Build 0)  -->
<svg version="1.1" id="Layer_1" xmlns="http://www.w3.org/2000/svg" xmlns:xlink="http://www.w3.org/1999/xlink" x="0px" y="0px"
	 viewBox="0 0 24 24" style="enable-background:new 0 0 24 24;" xml:space="preserve">
<style type="text/css">
	.st0{fill:#CF1C31;}
</style>
<g>
	<path class="st0" d="M7.3,10c0-0.2-0.1-0.3-0.3-0.3H1.8l4.1-3.8c0.9-0.9,2-1.6,3.3-2.1c2.2-0.8,4.6-0.7,6.6,0.4
		c2.1,1,3.7,2.8,4.5,4.9c0.1,0.2,0.2,0.2,0.4,0.2c0.2-0.1,0.2-0.2,0.2-0.4c-0.8-2.3-2.5-4.2-4.8-5.3s-4.8-1.2-7.1-0.4
		C7.6,3.7,6.4,4.5,5.4,5.4L1.3,9.3V4c0-0.2-0.1-0.3-0.3-0.3S0.7,3.8,0.7,4v6c0,0,0,0,0,0v0c0,0,0,0.1,0,0.1c0,0,0,0.1,0,0.1
		c0,0,0,0,0,0c0.1,0.1,0.1,0.1,0.2,0.1h6C7.2,10.3,7.3,10.2,7.3,10z"/>
	<path class="st0" d="M23.3,13.9c0,0,0-0.1,0-0.1c0,0,0,0,0,0c0,0-0.1,0-0.1,0c0,0-0.1,0-0.1,0c0,0,0,0,0,0h-6
		c-0.2,0-0.3,0.1-0.3,0.3s0.1,0.3,0.3,0.3h5.2l-4.1,3.8c-3.4,3.4-8.9,3.4-12.3,0c-0.9-0.9-1.6-2-2.1-3.3c-0.1-0.2-0.2-0.2-0.4-0.2
		c-0.2,0.1-0.2,0.2-0.2,0.4c0.5,1.3,1.2,2.5,2.2,3.5c1.8,1.8,4.2,2.7,6.6,2.7c2.4,0,4.8-0.9,6.6-2.7l4.1-3.9V20
		c0,0.2,0.1,0.3,0.3,0.3s0.3-0.1,0.3-0.3v-6C23.3,14,23.3,13.9,23.3,13.9z"/>
</g>
</svg>
