<?xml version="1.0" encoding="utf-8"?>
<!-- Generator: Adobe Illustrator 25.2.3, SVG Export Plug-In . SVG Version: 6.00 Build 0)  -->
<svg version="1.1" id="Layer_1" xmlns="http://www.w3.org/2000/svg" xmlns:xlink="http://www.w3.org/1999/xlink" x="0px" y="0px"
	 viewBox="0 0 798 370.2" style="enable-background:new 0 0 798 370.2;" xml:space="preserve">
<style type="text/css">
	.st0{fill:#00B67A;}
	.st1{fill:#FFFFFF;}
	.st2{fill:#005128;}
</style>
<g>
	<g>
		<g>
			<path class="st0" d="M14.4,223.3h146.9v146.9H14.4V223.3z M173.6,223.3h146.9v146.9H173.6V223.3z M332.8,223.3h146.9v146.9H332.8
				V223.3z M491.9,223.3h146.9v146.9H491.9V223.3z M651.1,223.3H798v146.9H651.1V223.3z"/>
		</g>
		<path class="st1" d="M87.9,322.3l22.3-5.7l9.3,28.8L87.9,322.3z M139.3,285.1H100l-12.1-37l-12.1,37H36.5l31.8,23l-12.1,37
			l31.8-23l19.6-14.1L139.3,285.1z M247,322.3l22.3-5.7l9.3,28.8L247,322.3z M298.5,285.1h-39.3l-12.1-37l-12.1,37h-39.3l31.8,23
			l-12.1,37l31.8-23l19.6-14.1L298.5,285.1z M406.2,322.3l22.3-5.7l9.3,28.8L406.2,322.3z M457.6,285.1h-39.3l-12.1-37l-12.1,37
			h-39.3l31.8,23l-12.1,37l31.8-23l19.6-14.1L457.6,285.1z M565.4,322.3l22.3-5.7l9.3,28.8L565.4,322.3z M616.8,285.1h-39.3
			l-12.1-37l-12.1,37H514l31.8,23l-12.1,37l31.8-23l19.6-14.1L616.8,285.1z M724.5,322.3l22.3-5.7l9.3,28.8L724.5,322.3z M776,285.1
			h-39.3l-12.1-37l-12.1,37h-39.3l31.8,23l-12.1,37l31.8-23l19.6-14.1L776,285.1z"/>
	</g>
	<g>
		<path d="M209.7,69.4h80.7v15h-31.8v84.7h-17.4V84.5h-31.7L209.7,69.4L209.7,69.4z M287,97h14.9v14h0.3c0.5-2,1.5-3.9,2.8-5.7
			c1.3-1.9,2.9-3.6,4.9-5.1c1.9-1.6,4-2.8,6.4-3.7c2.3-0.9,4.7-1.5,7-1.5c1.9,0,3.2,0.1,3.9,0.1c0.7,0.1,1.5,0.3,2.1,0.3v15.3
			c-1.1-0.3-2.3-0.4-3.5-0.5c-1.2-0.1-2.3-0.3-3.5-0.3c-2.7,0-5.2,0.5-7.6,1.6c-2.4,1.1-4.4,2.7-6.3,4.7c-1.7,2.1-3.2,4.7-4.3,7.7
			s-1.6,6.6-1.6,10.6v34.3h-16L287,97L287,97z M402.5,169.2h-15.7v-10.1h-0.3c-2,3.7-4.9,6.5-8.8,8.8s-7.8,3.3-11.8,3.3
			c-9.4,0-16.4-2.3-20.6-7c-4.3-4.7-6.4-11.8-6.4-21.3V97h16v44.3c0,6.4,1.2,10.9,3.7,13.4c2.4,2.7,5.9,4,10.2,4
			c3.3,0,6.1-0.5,8.4-1.6c2.3-1.1,4.1-2.4,5.5-4.1c1.5-1.7,2.4-3.9,3.1-6.3c0.7-2.4,0.9-5.1,0.9-7.8V97h16v72.2H402.5z M429.6,146
			c0.5,4.7,2.3,7.8,5.3,9.8c3.1,1.9,6.8,2.8,11,2.8c1.5,0,3.2-0.1,5.1-0.4c1.9-0.3,3.7-0.7,5.3-1.3c1.7-0.7,3.1-1.6,4.1-2.9
			c1.1-1.3,1.6-2.9,1.5-4.9c-0.1-2-0.8-3.7-2.3-5.1c-1.5-1.3-3.2-2.3-5.3-3.2c-2.1-0.8-4.7-1.5-7.4-2c-2.8-0.5-5.6-1.2-8.5-1.9
			c-2.9-0.7-5.9-1.5-8.6-2.4c-2.8-0.9-5.2-2.1-7.4-3.9c-2.1-1.6-4-3.6-5.2-6.1c-1.3-2.5-2-5.5-2-9.2c0-4,0.9-7.2,2.9-9.8
			c1.9-2.7,4.4-4.8,7.3-6.4c2.9-1.6,6.3-2.8,9.8-3.5s7-0.9,10.2-0.9c3.7,0,7.3,0.4,10.6,1.2c3.3,0.8,6.5,2,9.2,3.9
			c2.8,1.7,5.1,4.1,6.8,6.9c1.9,2.8,2.9,6.3,3.5,10.2h-16.6c-0.8-3.9-2.5-6.4-5.2-7.7c-2.8-1.3-5.9-2-9.4-2c-1.1,0-2.5,0.1-4,0.3
			c-1.6,0.3-2.9,0.5-4.4,1.1c-1.3,0.5-2.5,1.3-3.5,2.3c-0.9,0.9-1.5,2.3-1.5,3.9c0,2,0.7,3.5,2,4.7c1.3,1.2,3.1,2.1,5.3,3.1
			c2.1,0.8,4.7,1.5,7.4,2c2.8,0.5,5.7,1.2,8.6,1.9c2.9,0.7,5.7,1.5,8.5,2.4c2.8,0.9,5.3,2.1,7.4,3.9c2.1,1.6,4,3.6,5.3,6
			c1.3,2.4,2,5.5,2,8.9c0,4.3-0.9,7.8-2.9,10.9c-2,2.9-4.5,5.5-7.6,7.3c-3.1,1.9-6.6,3.2-10.4,4.1c-3.9,0.8-7.6,1.3-11.3,1.3
			c-4.5,0-8.8-0.5-12.6-1.6c-3.9-1.1-7.3-2.7-10.1-4.7c-2.8-2.1-5.1-4.7-6.6-7.8c-1.6-3.1-2.5-6.8-2.7-11.2h16.1v0.1H429.6z
			 M482.1,97h12.1V75.1h16v21.7h14.4v11.8h-14.4v38.6c0,1.7,0.1,3.1,0.3,4.4c0.1,1.2,0.5,2.3,0.9,3.1c0.5,0.8,1.3,1.5,2.3,1.9
			c1.1,0.4,2.4,0.7,4.3,0.7c1.1,0,2.3,0,3.3-0.1c1.1-0.1,2.3-0.3,3.3-0.5v12.4c-1.7,0.3-3.5,0.4-5.2,0.5c-1.7,0.3-3.3,0.3-5.2,0.3
			c-4.3,0-7.6-0.4-10.1-1.2c-2.5-0.8-4.5-2-6-3.5c-1.5-1.6-2.4-3.5-2.9-5.7c-0.5-2.3-0.8-5.1-0.9-8v-42.6h-12.1V96.7h0V97z
			 M535.7,97h15v9.8h0.3c2.3-4.3,5.3-7.2,9.3-9s8.2-2.8,13-2.8c5.7,0,10.6,0.9,14.9,3.1c4.3,2,7.7,4.7,10.5,8.2
			c2.8,3.5,4.9,7.6,6.3,12.2c1.3,4.7,2.1,9.7,2.1,14.9c0,4.9-0.7,9.6-1.9,14.1c-1.3,4.5-3.2,8.6-5.7,12.1s-5.7,6.3-9.7,8.4
			c-4,2.1-8.5,3.2-13.8,3.2c-2.3,0-4.7-0.3-6.9-0.7c-2.3-0.4-4.5-1.1-6.7-2c-2.1-0.9-4.1-2.1-5.9-3.6c-1.9-1.5-3.3-3.2-4.5-5.1h-0.3
			v36h-16V97H535.7z M591.5,133.1c0-3.2-0.4-6.4-1.3-9.4c-0.8-3.1-2.1-5.7-3.9-8.1c-1.7-2.4-3.9-4.3-6.3-5.7
			c-2.5-1.5-5.5-2.1-8.6-2.1c-6.6,0-11.7,2.3-15.2,6.9c-3.3,4.7-5.1,10.9-5.1,18.6c0,3.7,0.4,7,1.3,10.1c0.9,3.1,2.1,5.7,4,8
			c1.7,2.3,3.9,4,6.4,5.3c2.5,1.3,5.3,2,8.6,2c3.7,0,6.6-0.8,9.2-2.3c2.5-1.5,4.5-3.5,6.3-5.7c1.6-2.4,2.8-5.1,3.5-8.1
			C591.1,139.4,591.5,136.3,591.5,133.1L591.5,133.1z M619.5,69.4h16v15h-16V69.4z M619.5,97h16v72.2h-16V97L619.5,97z M649.7,69.4
			h16v99.8h-16V69.4L649.7,69.4z M714.3,171.2c-5.7,0-10.9-0.9-15.4-2.9c-4.5-2-8.2-4.5-11.4-7.8c-3.1-3.3-5.5-7.4-7-12.1
			s-2.5-9.8-2.5-15.3c0-5.5,0.8-10.5,2.5-15.2c1.6-4.7,4-8.6,7-12.1c3.1-3.3,6.9-6,11.4-7.8c4.5-1.9,9.7-2.9,15.4-2.9
			s10.9,0.9,15.4,2.9c4.5,1.9,8.2,4.5,11.4,7.8c3.1,3.3,5.5,7.4,7,12.1c1.6,4.7,2.5,9.7,2.5,15.2c0,5.6-0.8,10.6-2.5,15.3
			s-4,8.6-7,12.1c-3.1,3.3-6.9,6-11.4,7.8C725.2,170.1,720.2,171.2,714.3,171.2L714.3,171.2z M714.3,158.5c3.5,0,6.7-0.8,9.2-2.3
			c2.7-1.5,4.7-3.5,6.4-5.9s2.9-5.2,3.7-8.1c0.8-3.1,1.2-6.1,1.2-9.3c0-3.1-0.4-6.1-1.2-9.2c-0.8-3.1-2-5.7-3.7-8.1
			c-1.7-2.4-3.9-4.3-6.4-5.7c-2.7-1.5-5.7-2.3-9.2-2.3c-3.5,0-6.6,0.8-9.2,2.3c-2.7,1.5-4.7,3.5-6.4,5.7c-1.7,2.4-2.9,5.1-3.7,8.1
			c-0.8,3.1-1.2,6.1-1.2,9.2c0,3.2,0.4,6.3,1.2,9.3c0.8,3.1,2,5.7,3.7,8.1c1.7,2.4,3.9,4.4,6.4,5.9
			C707.8,157.9,710.9,158.5,714.3,158.5L714.3,158.5z M755.6,97h12.1V75.1h16v21.7H798v11.8h-14.4v38.6c0,1.7,0.1,3.1,0.3,4.4
			c0.1,1.2,0.5,2.3,0.9,3.1c0.5,0.8,1.3,1.5,2.3,1.9c1.1,0.4,2.4,0.7,4.3,0.7c1.1,0,2.3,0,3.3-0.1c1.1-0.1,2.3-0.3,3.3-0.5v12.4
			c-1.7,0.3-3.5,0.4-5.2,0.5c-1.7,0.3-3.3,0.3-5.2,0.3c-4.3,0-7.6-0.4-10.1-1.2c-2.5-0.8-4.5-2-6-3.5c-1.5-1.6-2.4-3.5-2.9-5.7
			c-0.5-2.3-0.8-5.1-0.9-8v-42.6h-12.1V96.7l0,0V97z"/>
		<path class="st0" d="M191.1,69.4h-73L95.6,0L73,69.4L0,69.3l59.1,43l-22.6,69.4l59.1-43l59.1,43l-22.5-69.4L191.1,69.4z"/>
		<path class="st2" d="M137.1,127.9l-5.1-15.7l-36.4,26.5L137.1,127.9z"/>
	</g>
</g>
</svg>
